HIERARCHY
ROOT hips
{
  OFFSET 0 9.313263304106702 1.2146308026317778
  CHANNELS 6 Xposition Yposition Zposition Yrotation Xrotation Zrotation
  JOINT spine
  {
    OFFSET -6.402521e-31 0.5173342420023708 0
    CHANNELS 3 Yrotation Xrotation Zrotation
    JOINT chest
    {
      OFFSET 0 1.130544299341115 0
      CHANNELS 3 Yrotation Xrotation Zrotation
      JOINT upperChest
      {
        OFFSET 0 1.0863555061129995 0
        CHANNELS 3 Yrotation Xrotation Zrotation
        JOINT neck
        {
          OFFSET 0 1.3773706506454462 0
          CHANNELS 3 Yrotation Xrotation Zrotation
          JOINT head
          {
            OFFSET 0 0.7374408940073979 0
            CHANNELS 3 Yrotation Xrotation Zrotation
            JOINT leftEye
            {
              OFFSET 0.25066580148932727 0.6408406698778757 0.15963719178883284
              CHANNELS 3 Yrotation Xrotation Zrotation
              End Site
              {
                OFFSET 0.25066580148932727 0.6408406698778757 0.15963719178883284
              }
            }
            JOINT rightEye
            {
              OFFSET -0.25066576739704244 0.6408406384191823 0.15963727561643756
              CHANNELS 3 Yrotation Xrotation Zrotation
              End Site
              {
                OFFSET -0.25066576739704244 0.6408406384191823 0.15963727561643756
              }
            }
          }
        }
        JOINT leftShoulder
        {
          OFFSET 0.3761817444281191 1.0539491987447769 0
          CHANNELS 3 Yrotation Xrotation Zrotation
          JOINT leftUpperArm
          {
            OFFSET 0.8702844380000002 0 0
            CHANNELS 3 Yrotation Xrotation Zrotation
            JOINT leftLowerArm
            {
              OFFSET 2.198527310000323 0 0
              CHANNELS 3 Yrotation Xrotation Zrotation
              JOINT leftHand
              {
                OFFSET 2.146852313968281 0 0
                CHANNELS 3 Yrotation Xrotation Zrotation
                JOINT leftIndexProximal
                {
                  OFFSET 0.6585177834681599 0.07380250427007962 0.18382213159631788
                  CHANNELS 3 Yrotation Xrotation Zrotation
                  JOINT leftIndexIntermediate
                  {
                    OFFSET 0.3323021288626682 -0.009606893929485771 -0.012820872253340998
                    CHANNELS 3 Yrotation Xrotation Zrotation
                    JOINT leftIndexDistal
                    {
                      OFFSET 0.2045908926985518 -0.0071133989147997845 -0.006828784783599051
                      CHANNELS 3 Yrotation Xrotation Zrotation
                      End Site
                      {
                        OFFSET 0.2045908926985518 -0.0071133989147997845 -0.006828784783599051
                      }
                    }
                  }
                }
                JOINT leftLittleProximal
                {
                  OFFSET 0.6110054258835662 0.07380246363125398 -0.29175655876064077
                  CHANNELS 3 Yrotation Xrotation Zrotation
                  JOINT leftLittleIntermediate
                  {
                    OFFSET 0.3144281999999998 -2.5124724523095665e-9 1.8658118799974588e-7
                    CHANNELS 3 Yrotation Xrotation Zrotation
                    JOINT leftLittleDistal
                    {
                      OFFSET 0.18116185580251631 0.002815456192251098 0.0034826415518049436
                      CHANNELS 3 Yrotation Xrotation Zrotation
                      End Site
                      {
                        OFFSET 0.18116185580251631 0.002815456192251098 0.0034826415518049436
                      }
                    }
                  }
                }
                JOINT leftMiddleProximal
                {
                  OFFSET 0.6637478005691111 0.07380246480054087 0.02046981859247815
                  CHANNELS 3 Yrotation Xrotation Zrotation
                  JOINT leftMiddleIntermediate
                  {
                    OFFSET 0.3705733999999994 -2.9611069152224445e-9 9.35054791928458e-8
                    CHANNELS 3 Yrotation Xrotation Zrotation
                    JOINT leftMiddleDistal
                    {
                      OFFSET 0.22861063500000056 -1.82673876025774e-9 -1.6740782024515788e-7
                      CHANNELS 3 Yrotation Xrotation Zrotation
                      End Site
                      {
                        OFFSET 0.22861063500000056 -1.82673876025774e-9 -1.6740782024515788e-7
                      }
                    }
                  }
                }
                JOINT leftRingProximal
                {
                  OFFSET 0.6561845547265777 0.07380246406440083 -0.13588087571513918
                  CHANNELS 3 Yrotation Xrotation Zrotation
                  JOINT leftRingIntermediate
                  {
                    OFFSET 0.3437531000000005 -2.746796123886952e-9 1.4935781944558357e-7
                    CHANNELS 3 Yrotation Xrotation Zrotation
                    JOINT leftRingDistal
                    {
                      OFFSET 0.1983118991198174 -0.002467117924596085 -0.004538141969590015
                      CHANNELS 3 Yrotation Xrotation Zrotation
                      End Site
                      {
                        OFFSET 0.1983118991198174 -0.002467117924596085 -0.004538141969590015
                      }
                    }
                  }
                }
                JOINT leftThumbProximal
                {
                  OFFSET 0.09767004258864787 -0.14930060425447422 -0.07008212897521154
                  CHANNELS 3 Yrotation Xrotation Zrotation
                  JOINT leftThumbIntermediate
                  {
                    OFFSET 0.36682123028154767 -0.015768465060082004 0.28693641268151077
                    CHANNELS 3 Yrotation Xrotation Zrotation
                    JOINT leftThumbDistal
                    {
                      OFFSET 0.21091084272403915 -0.016756648201192714 0.1933767059105508
                      CHANNELS 3 Yrotation Xrotation Zrotation
                      End Site
                      {
                        OFFSET 0.21091084272403915 -0.016756648201192714 0.1933767059105508
                      }
                    }
                  }
                }
              }
            }
          }
        }
        JOINT rightShoulder
        {
          OFFSET -0.37618174442811925 1.0539491987447769 0
          CHANNELS 3 Yrotation Xrotation Zrotation
          JOINT rightUpperArm
          {
            OFFSET -0.870284438 0 0
            CHANNELS 3 Yrotation Xrotation Zrotation
            JOINT rightLowerArm
            {
              OFFSET -2.1985273100003235 0 0
              CHANNELS 3 Yrotation Xrotation Zrotation
              JOINT rightHand
              {
                OFFSET -2.1468523139682802 0 0
                CHANNELS 3 Yrotation Xrotation Zrotation
                JOINT rightIndexProximal
                {
                  OFFSET -0.6585177834681599 0.07380250427007962 0.18382213159631788
                  CHANNELS 3 Yrotation Xrotation Zrotation
                  JOINT rightIndexIntermediate
                  {
                    OFFSET -0.3323021288626682 -0.009606893929485771 -0.012820872253340998
                    CHANNELS 3 Yrotation Xrotation Zrotation
                    JOINT rightIndexDistal
                    {
                      OFFSET -0.2045908926985518 -0.0071133989147997845 -0.006828784783599051
                      CHANNELS 3 Yrotation Xrotation Zrotation
                      End Site
                      {
                        OFFSET -0.2045908926985518 -0.0071133989147997845 -0.006828784783599051
                      }
                    }
                  }
                }
                JOINT rightLittleProximal
                {
                  OFFSET -0.6110054258835662 0.07380246363125398 -0.29175655876064077
                  CHANNELS 3 Yrotation Xrotation Zrotation
                  JOINT rightLittleIntermediate
                  {
                    OFFSET -0.3144281999999998 -2.5124724523095665e-9 1.8658118799974588e-7
                    CHANNELS 3 Yrotation Xrotation Zrotation
                    JOINT rightLittleDistal
                    {
                      OFFSET -0.18116185580251631 0.002815456192251098 0.0034826415518049436
                      CHANNELS 3 Yrotation Xrotation Zrotation
                      End Site
                      {
                        OFFSET -0.18116185580251631 0.002815456192251098 0.0034826415518049436
                      }
                    }
                  }
                }
                JOINT rightMiddleProximal
                {
                  OFFSET -0.6637478005691111 0.07380246480054087 0.02046981859247815
                  CHANNELS 3 Yrotation Xrotation Zrotation
                  JOINT rightMiddleIntermediate
                  {
                    OFFSET -0.3705733999999994 -2.9611069152224445e-9 9.35054791928458e-8
                    CHANNELS 3 Yrotation Xrotation Zrotation
                    JOINT rightMiddleDistal
                    {
                      OFFSET -0.22861063500000056 -1.82673876025774e-9 -1.6740782024515788e-7
                      CHANNELS 3 Yrotation Xrotation Zrotation
                      End Site
                      {
                        OFFSET -0.22861063500000056 -1.82673876025774e-9 -1.6740782024515788e-7
                      }
                    }
                  }
                }
                JOINT rightRingProximal
                {
                  OFFSET -0.6561845547265777 0.07380246406440083 -0.13588087571513918
                  CHANNELS 3 Yrotation Xrotation Zrotation
                  JOINT rightRingIntermediate
                  {
                    OFFSET -0.3437531000000005 -2.746796123886952e-9 1.4935781944558357e-7
                    CHANNELS 3 Yrotation Xrotation Zrotation
                    JOINT rightRingDistal
                    {
                      OFFSET -0.1983118991198174 -0.002467117924596085 -0.004538141969590015
                      CHANNELS 3 Yrotation Xrotation Zrotation
                      End Site
                      {
                        OFFSET -0.1983118991198174 -0.002467117924596085 -0.004538141969590015
                      }
                    }
                  }
                }
                JOINT rightThumbProximal
                {
                  OFFSET -0.09767004258864787 -0.14930060425447422 -0.07008212897521154
                  CHANNELS 3 Yrotation Xrotation Zrotation
                  JOINT rightThumbIntermediate
                  {
                    OFFSET -0.36682123028154767 -0.015768465060082004 0.28693641268151077
                    CHANNELS 3 Yrotation Xrotation Zrotation
                    JOINT rightThumbDistal
                    {
                      OFFSET -0.21091084272403915 -0.016756648201192714 0.1933767059105508
                      CHANNELS 3 Yrotation Xrotation Zrotation
                      End Site
                      {
                        OFFSET -0.21091084272403915 -0.016756648201192714 0.1933767059105508
                      }
                    }
                  }
                }
              }
            }
          }
        }
      }
    }
  }
  JOINT leftUpperLeg
  {
    OFFSET 0.7715603 -0.3993844658041501 0
    CHANNELS 3 Yrotation Xrotation Zrotation
    JOINT leftLowerLeg
    {
      OFFSET 0 -3.529830000249343 0
      CHANNELS 3 Yrotation Xrotation Zrotation
      JOINT leftFoot
      {
        OFFSET 0 -4.154939295409685 0.004208579085223096
        CHANNELS 3 Yrotation Xrotation Zrotation
        JOINT leftToes
        {
          OFFSET 0 -0.6353414391261847 1.10414981190622
          CHANNELS 3 Yrotation Xrotation Zrotation
          End Site
          {
            OFFSET 0 -0.6015820691747853 1.10414981190622
          }
        }
      }
    }
  }
  JOINT rightUpperLeg
  {
    OFFSET -0.7715603 -0.3993844658041501 0
    CHANNELS 3 Yrotation Xrotation Zrotation
    JOINT rightLowerLeg
    {
      OFFSET 0 -3.529830000249343 0
      CHANNELS 3 Yrotation Xrotation Zrotation
      JOINT rightFoot
      {
        OFFSET 0 -4.154939295409685 0.004208579085223096
        CHANNELS 3 Yrotation Xrotation Zrotation
        JOINT rightToes
        {
          OFFSET 0 -0.6353414391261847 1.10414981190622
          CHANNELS 3 Yrotation Xrotation Zrotation
          End Site
          {
            OFFSET 0 -0.6015820691747853 1.10414981190622
          }
        }
      }
    }
  }
}
MOTION
Frames: 4
Frame Time: 0.03333333333333333
-0.03418736498464237 8.938825780695133 1.3409299021204697 -2.5676864000743884 -2.840043897869361 -2.8320129243833274 1.6430993136263576 3.4732984195660976 2.917600368911611 1.061899719510416 2.9918651658361517 3.6773125852455126 0 0 0 0.4399503786729516 6.484585664574883 2.782663027329229 3.1669529348450323 -6.076387953246737 6.583477812100584 0 0 0 0 0 0 -17.42674711789225 1.0377631119562083 -12.387670515557918 -19.476687079845224 3.657377688748429 -70.33344558210037 -1.5386827688630982 -0.000020069355814242094 0.0000028948138524363317 -2.090169202310185 -33.962690489969596 -4.235121991540448 -1.0055498981515563 -0.03488891526141425 -7.613822769478857 1.766028717016393 0.27027740416996876 -17.38218640168713 0.8147732399112494 0.05778527780430121 -8.051099342796178 5.834134101097555 1.0727815620261405 -27.10715118623098 1.728778258877942 0.3338222083183444 -17.46500223717552 1.6578778986270282 0.3013610484063679 -16.561522413450547 2.65238581088066 -0.08354112721613753 -15.84646715749009 1.7581710294007602 0.26826004816779564 -17.396145754890934 1.8562443688503398 0.30069485564375553 -18.402541844126016 3.594951337082724 0.1201709299503167 -21.03520771024751 2.09466068330696 0.3865590094413625 -20.896397927354244 1.8020272540639806 0.28357444372232526 -17.870410068326187 2.6974627636468016 -0.4764762334271537 4.934537235674589 24.89097691260981 10.484865580020678 21.80881624938315 2.90903713130453 -13.939777469210853 8.247588134356976 15.547537416857965 1.0664511147493962 15.513614296097161 27.900097226899163 11.361405676434613 63.73409203586671 6.358598672023663 0.000007491288579438049 -2.2282276554078456e-7 0.26685251476355304 -20.108450096713064 6.584714360015869 1.2986614681927167 0.020626329638001022 6.8897768945771505 -1.3628911847346359 0.2091546506877126 17.34484889373816 -0.6593769884888926 0.0453194237764349 7.995355876150434 -4.884911678754196 0.7499127355668573 26.249869041673595 -1.3191669295320871 0.17043209406705925 17.565984108170888 -1.3998035665307327 0.1675062524188703 16.66509741372697 -2.235139752421926 -0.1266706037404931 14.945759173347902 -1.3040178284505306 0.20280039926134072 17.446084194249575 -1.5147980659174771 0.2391036588548603 18.454434489635727 -3.049011641592378 0.021181460970365218 20.41515569172303 -1.6940071730313178 0.3112948734489014 20.94833131031758 -1.4467635018991032 0.2322691696701685 17.900319349104016 -0.9084087094522897 -1.3950418604251416 -4.3791182053551605 -29.372175126618338 10.811459206845347 -22.09255664751897 -2.8298928149030433 -15.634041929781267 -11.850625142741501 14.875352877944257 -11.210669234431922 6.588313627874963 -0.3943493373281124 11.335491569686308 4.29513432199491 0.514047162967152 2.196069314318596 -7.384498909826791 0.000002972420864312642 -4.89933960209428 5.905890538684326e-7 -10.239596337713644 -0.1658812208078998 3.7386928766684866 -10.18071575137065 7.323004547380074 -5.305187015272127 -4.312827866060265 -3.9173785245750086 3.55268395075083 0.000008404244372598211 -7.234252484423463 -0.000003183336001110251
-0.034072900360280815 8.938493728637694 1.3418718045195328 -2.654545184349899 -2.9604130520843155 -2.8029313341012645 1.6412763049440535 3.4710901357253814 2.912553174640417 1.0617009964797748 2.992428357024848 3.6801514867986254 0 0 0 0.41413331031379097 6.654717206012613 2.661526327131385 3.1002734683907964 -5.6817901179875525 6.221852269371831 0 0 0 0 0 0 -17.441034729275366 1.0334571482651926 -12.417534371002128 -19.491090142394228 3.659588344909272 -70.33990984437006 -1.6649867167139978 -0.000014920531814149983 -0.000002778016149424006 -2.144230305953521 -34.16977944473439 -4.249684360421046 -0.999412272391843 -0.036735814782094506 -7.638533431928052 1.764410842633104 0.26976241285978036 -17.365520900665715 0.8130934293665486 0.05754908253945323 -8.034585694021628 5.835534448340916 1.0742384623021277 -27.15102162029145 1.7272926481072117 0.33330678710562245 -17.44963050593166 1.6563822696147048 0.3008600898014756 -16.546157622779646 2.657756134574446 -0.08281282417790943 -15.878851262404552 1.7581152396122575 0.26823005903980773 -17.395612185920157 1.8561922046486248 0.30068562408907856 -18.401986202539465 3.6018479149400795 0.12166761182552675 -21.101950785990446 2.0959364171111923 0.3870416426733406 -20.909748703597504 1.8032699710197315 0.2839795376056444 -17.8831903848371 2.7114946538713682 -0.4749091846131574 4.9367383586576015 24.87369980812677 10.48761888011668 21.80253781125669 2.906506360537894 -13.940404682408854 8.247538817132236 15.48527770512691 1.0573294313704094 15.564974875375691 27.89905076734821 11.400781620078911 63.69641332109264 6.43099954711872 0.000007740262196347516 0.000005857092104109605 0.3437679758914222 -20.26280405534099 6.516799903616601 1.2807707670963488 0.020465911896157346 6.920703452391718 -1.3616079064456452 0.2087506663242031 17.328369066349776 -0.6580631736561444 0.04514533393962919 7.979041548434793 -4.903575627131358 0.7597126129097675 26.32804977868937 -1.3168050973992913 0.16976135853068255 17.53592115682897 -1.3974340501546012 0.16685085829355298 16.635058083792394 -2.2265494214476877 -0.12920681138081253 14.957473548176598 -1.3041271615794972 0.2028155805190929 17.447590972354213 -1.5149350334846428 0.23915723361777266 18.455984768573686 -3.0532687651723176 0.022082752520362653 20.455200788692586 -1.6959652265972887 0.312045778480415 20.974171004873615 -1.448770413202729 0.23293197028563734 17.92610598373009 -0.9102964530215659 -1.393106636538251 -4.376044661992633 -29.39402961220242 10.804774247195228 -22.099027359268373 -2.8308635362714716 -15.633878800122945 -11.850573577240636 14.89141551259793 -11.1015700366991 6.600855745918182 -0.32252017359763896 11.416029908497672 4.30762156896078 0.5141003083373218 2.1503208859548737 -7.367244539313176 0.0000054272402027211726 -4.898989985135459 0.0000010117548518742392 -10.264549876463553 -0.11353238581398238 3.6617454939631924 -10.177772680722422 7.461272357517445 -5.29470635313686 -4.196734931167303 -3.996985920524455 3.553256119334738 7.619392749343389e-7 -7.2170076185692915 -0.000003177410186211001
-0.03378771584142338 8.938170346346768 1.3424915167205644 -2.7378528103808906 -3.045289901507587 -2.7793757377531763 1.6402343388325067 3.467877901321922 2.908946691792054 1.0647895629523836 2.9974633204900103 3.6824771483132026 0 0 0 0.38024833361020854 6.670266122262652 2.5355219915050586 2.9689711996066928 -5.908195413390086 5.806215054836777 0 0 0 0 0 0 -17.436823827786434 1.0264560337124726 -12.455795831776342 -19.549108817426347 3.653041088453377 -70.35444604425325 -1.7877495881687089 0.000002265227073461749 -7.427014505546515e-7 -2.3119785619631235 -34.39468804986709 -4.180003715361238 -0.9975694064282509 -0.03704235293516607 -7.6357528795785665 1.7647118672703483 0.26985995758041714 -17.368689509121605 0.8134180393736503 0.057595179669515634 -8.037714724822363 5.832380828128362 1.07204740153749 -27.116457276482723 1.7270489031580176 0.3332206345512674 -17.447086307192265 1.6561259369095818 0.3007662267676051 -16.543531891809263 2.659425191694979 -0.0824978013849626 -15.88514119122734 1.757951394236188 0.26819134531686445 -17.393916340648246 1.8560256932335517 0.30061750802258513 -18.400305779730385 3.5995936492402265 0.12121532422047157 -21.077709445806814 2.096369411855346 0.3872167503091557 -20.91423480277846 1.8037704706081004 0.2841345261076 -17.88835230258742 2.734406959536312 -0.47323599779685777 4.947237902204179 24.90292202733537 10.488816239013746 21.814893005260434 2.9041131112706777 -13.940995830208896 8.247507643038295 15.406317170426416 1.0508469117223798 15.601829177982307 27.95192745366612 11.425911641038757 63.66785650977759 6.438838665734654 0.0000047816326770047814 -0.000007237018448428578 0.3577331493392963 -20.320644154970854 6.525833261806825 1.285783289107359 0.018620166557324534 6.938111847472346 -1.3634567650590301 0.20935817033797638 17.35218740970107 -0.6599710409475771 0.0453842238824638 8.002808088723908 -4.898243499442302 0.7568733000715627 26.34555723580443 -1.310285764345436 0.16795698013440985 17.45286226413634 -1.3909091346913351 0.16505723242155493 16.55197510202898 -2.238782436598825 -0.1266894535078498 14.988380832497612 -1.3042442834271553 0.20285234637711755 17.4490761545122 -1.5150631461689332 0.2392155842188519 18.45749346900857 -3.063219895001065 0.025885142177011183 20.448856627307865 -1.6961128613209309 0.31208972179457034 20.97597096744856 -1.4489055671549276 0.2329762601596111 17.927888511387643 -0.9141940067455296 -1.3915417410239241 -4.374579882134883 -29.39574378068562 10.804795976766968 -22.100001935596126 -2.8315786167684918 -15.633740494644872 -11.850569904693106 14.903882473084973 -11.024672529169862 6.610422279443621 -0.2474842493784692 11.480028190804791 4.32014653156382 0.5138875398335427 2.110398157090991 -7.361253048928712 -0.0000018241580723732474 -4.898290323314774 -0.000001525196637059163 -10.284248749585844 -0.0889822795231725 3.5987187196392885 -10.176035752071805 7.578270570325654 -5.283591312161879 -4.088214065088203 -4.061661192652539 3.5517324268962547 -0.0000021967503080608488 -7.207971495660738 -0.000004034878783619754
-0.03341953185471621 8.937912854281338 1.342891965107884 -2.8183465201246594 -3.0891412780546914 -2.7671555929825185 1.639565600457453 3.4636985060334653 2.906931008251724 1.0679543787253156 2.9921998744925387 3.683941071814187 0 0 0 0.345402647632298 6.529332045644488 2.4192259724423577 2.8058270511029684 -6.602271926190719 5.42254457444825 0 0 0 0 0 0 -17.413377904577022 1.0243048199718496 -12.471085249002947 -19.63141274079173 3.609509417106743 -70.40085998687235 -1.8566862402293982 -0.000011827612660602054 -5.90016811182687e-7 -2.4488839727567915 -34.45353589619285 -4.109748953122886 -0.9927001787285813 -0.03666650235502289 -7.6300634215198295 1.7660034371295839 0.2702836741399454 -17.381875306723437 0.8147654500103976 0.05778399714318053 -8.051045128574307 5.83257702209289 1.0721247883210274 -27.115313118042423 1.7273583561855452 0.3333332545365326 -17.450305058553546 1.656430373693199 0.3008702285033064 -16.54667086025208 2.6566469651276314 -0.0827130792995826 -15.862199145833415 1.757635435582499 0.2680883043815498 -17.39072185733864 1.8557185865770773 0.3005170548348184 -18.397104230155662 3.5977959039746525 0.12089558527629408 -21.056891460027632 2.094461419486778 0.38648459603875185 -20.894330559553442 1.8017843637810513 0.2834919201528918 -17.86798006136983 2.7086177792002615 -0.4761042954315262 4.973781656606507 24.93021203691249 10.495107876114066 21.829877243067415 2.902010035561132 -13.941516604525228 8.247470462621246 15.373201142105996 1.0514229857095472 15.600112355996798 27.997307321149044 11.437706586513007 63.693492949660765 6.38173080982863 0.000011217145646150667 -0.0000018870089454050806 0.29113635601523663 -20.258464778883045 6.61715200615753 1.2836105494866012 0.017073055264045692 6.963164790450737 -1.371488762008789 0.21183582485605978 17.45539425728671 -0.6683110788735513 0.046583566133370585 8.106014713211966 -4.8865893845171025 0.750576281296348 26.337100239947357 -1.3173848663781227 0.16992036123065912 17.54330513091789 -1.3980243812992166 0.16701643772285166 16.642458253029478 -2.216194556500676 -0.13394138560059324 15.040996430603512 -1.3043648195090483 0.20289531547326747 17.45064120432738 -1.5151690683069459 0.23924197139061476 18.459025388319038 -3.086600323222494 0.03440221750332576 20.458732991929324 -1.6978606613339031 0.31276239870668315 20.999029060226462 -1.4507253877615032 0.23358327157291353 17.951328198333346 -0.9236819193026728 -1.3908993004210484 -4.375085555582043 -29.391314067027427 10.802395303191952 -22.097840284024777 -2.831684165359193 -15.633729855765813 -11.850540682486828 14.910937549944084 -10.986752281742808 6.621338984195738 -0.16856310701805025 11.529090764265737 4.331579028755068 0.5133545409775463 2.0745776764846404 -7.360368118784515 -0.0000016833951957892917 -4.897347302019312 -0.000003236738078417632 -10.295642095325753 -0.08804221358594592 3.5579962854489176 -10.17456347114956 7.657398286770819 -5.2708058065888865 -3.9917661565517792 -4.103328622421542 3.547179860853993 0.000005330867311894308 -7.205186684981075 -0.000003173335644117316
